<svg width="44" height="44" viewBox="0 0 44 44" fill="none" xmlns="http://www.w3.org/2000/svg">
<path d="M32.4549 0H10.8183C4.84352 0 0 4.8415 0 10.8138V32.4414C0 38.4137 4.84352 43.2552 10.8183 43.2552H32.4549C38.4297 43.2552 43.2732 38.4137 43.2732 32.4414V10.8138C43.2732 4.8415 38.4297 0 32.4549 0Z" fill="#FFE8F9"/>
<mask id="path-2-inside-1_1093_2065" fill="white">
<path d="M8.30225 19.3428C8.30225 14.5469 12.9 10.9268 18.213 10.9268C22.4397 10.9268 26.188 13.2033 27.5655 16.5455C27.579 16.5805 27.5842 16.6183 27.5804 16.6557C27.5767 16.693 27.5642 16.729 27.5439 16.7607C27.5237 16.7923 27.4963 16.8188 27.4639 16.8379C27.4316 16.8569 27.3952 16.8681 27.3577 16.8705C26.9074 16.9076 26.4619 16.9712 26.0212 17.0615C25.9664 17.0722 25.9095 17.0645 25.8595 17.0396C25.8095 17.0147 25.7691 16.9739 25.7445 16.9237C24.5809 14.5324 21.7208 12.7393 18.213 12.7393C13.579 12.7393 10.1147 15.8423 10.1147 19.3416C10.1147 21.2326 11.0983 22.9787 12.7525 24.2124C12.8654 24.297 12.957 24.4069 13.0199 24.5332C13.0828 24.6595 13.1154 24.7987 13.115 24.9398V26.0756L14.9867 25.5561C15.1494 25.511 15.3214 25.5122 15.4834 25.5597C16.2205 25.776 17.0107 25.9065 17.8336 25.9379C17.8967 25.9408 17.9565 25.9672 18.0012 26.0119C18.0459 26.0566 18.0723 26.1164 18.0752 26.1796C18.0978 26.6951 18.1651 27.1937 18.277 27.6755C18.2792 27.6852 18.2791 27.6952 18.2769 27.705C18.2747 27.7147 18.2704 27.7237 18.2643 27.7316C18.2582 27.7394 18.2504 27.7458 18.2416 27.7503C18.2327 27.7548 18.2229 27.7573 18.213 27.7576C17.2056 27.7589 16.2023 27.6289 15.2284 27.371L12.4529 28.1419C12.3182 28.1793 12.1767 28.1851 12.0394 28.1588C11.9021 28.1325 11.7728 28.0748 11.6615 27.9902C11.5502 27.9056 11.4601 27.7964 11.398 27.6712C11.3359 27.5459 11.3037 27.408 11.3037 27.2683V25.3796C9.47916 23.8741 8.30225 21.7425 8.30225 19.3416"/>
</mask>
<path d="M8.30225 19.3428C8.30225 14.5469 12.9 10.9268 18.213 10.9268C22.4397 10.9268 26.188 13.2033 27.5655 16.5455C27.579 16.5805 27.5842 16.6183 27.5804 16.6557C27.5767 16.693 27.5642 16.729 27.5439 16.7607C27.5237 16.7923 27.4963 16.8188 27.4639 16.8379C27.4316 16.8569 27.3952 16.8681 27.3577 16.8705C26.9074 16.9076 26.4619 16.9712 26.0212 17.0615C25.9664 17.0722 25.9095 17.0645 25.8595 17.0396C25.8095 17.0147 25.7691 16.9739 25.7445 16.9237C24.5809 14.5324 21.7208 12.7393 18.213 12.7393C13.579 12.7393 10.1147 15.8423 10.1147 19.3416C10.1147 21.2326 11.0983 22.9787 12.7525 24.2124C12.8654 24.297 12.957 24.4069 13.0199 24.5332C13.0828 24.6595 13.1154 24.7987 13.115 24.9398V26.0756L14.9867 25.5561C15.1494 25.511 15.3214 25.5122 15.4834 25.5597C16.2205 25.776 17.0107 25.9065 17.8336 25.9379C17.8967 25.9408 17.9565 25.9672 18.0012 26.0119C18.0459 26.0566 18.0723 26.1164 18.0752 26.1796C18.0978 26.6951 18.1651 27.1937 18.277 27.6755C18.2792 27.6852 18.2791 27.6952 18.2769 27.705C18.2747 27.7147 18.2704 27.7237 18.2643 27.7316C18.2582 27.7394 18.2504 27.7458 18.2416 27.7503C18.2327 27.7548 18.2229 27.7573 18.213 27.7576C17.2056 27.7589 16.2023 27.6289 15.2284 27.371L12.4529 28.1419C12.3182 28.1793 12.1767 28.1851 12.0394 28.1588C11.9021 28.1325 11.7728 28.0748 11.6615 27.9902C11.5502 27.9056 11.4601 27.7964 11.398 27.6712C11.3359 27.5459 11.3037 27.408 11.3037 27.2683V25.3796C9.47916 23.8741 8.30225 21.7425 8.30225 19.3416" fill="#C163A6"/>
<path d="M27.5655 16.5455L242.088 -66.4011L241.176 -68.7591L240.213 -71.0965L27.5655 16.5455ZM27.3577 16.8705L12.6332 -212.658L10.5626 -212.525L8.49477 -212.355L27.3577 16.8705ZM26.0212 17.0615L70.1316 242.792L71.1454 242.594L72.1573 242.387L26.0212 17.0615ZM25.7445 16.9237L-181.07 117.561L-181.012 117.679L-180.955 117.797L25.7445 16.9237ZM12.7525 24.2124L150.752 -159.788L150.504 -159.974L150.256 -160.159L12.7525 24.2124ZM13.115 24.9398L-216.884 24.3271L-216.885 24.6334V24.9398H13.115ZM13.115 26.0756H-216.885V328.621L74.6361 247.695L13.115 26.0756ZM14.9867 25.5561L-46.4187 -196.095L-46.4765 -196.079L-46.5344 -196.063L14.9867 25.5561ZM15.4834 25.5597L80.2445 -195.135L80.1812 -195.153L80.1179 -195.172L15.4834 25.5597ZM17.8336 25.9379L28.5368 -203.813L27.5728 -203.858L26.6084 -203.895L17.8336 25.9379ZM18.0752 26.1796L247.855 16.1267L247.841 15.8015L247.826 15.4763L18.0752 26.1796ZM18.277 27.6755L242.911 -21.7155L242.616 -23.0585L242.305 -24.3978L18.277 27.6755ZM18.213 27.7576L18.5006 257.757L21.8354 257.753L25.1687 257.652L18.213 27.7576ZM15.2284 27.371L74.1179 -194.962L13.7985 -210.939L-46.3247 -194.24L15.2284 27.371ZM12.4529 28.1419L-49.1003 -193.469L-49.1437 -193.457L-49.1872 -193.444L12.4529 28.1419ZM11.3037 27.2683L241.304 27.4019L241.304 27.3351V27.2683H11.3037ZM11.3037 25.3796H241.304V-83.026L157.689 -152.022L11.3037 25.3796ZM8.30225 19.3428H238.302C238.302 95.2639 200.865 154.888 158.117 190.352C116.643 224.759 66.5147 240.927 18.213 240.927V10.9268V-219.073C-72.0387 -219.073 -221.698 -150.828 -221.698 19.3428H8.30225ZM18.213 10.9268V240.927C-52.5657 240.927 -144.507 202.635 -185.082 104.188L27.5655 16.5455L240.213 -71.0965C196.883 -176.228 97.4452 -219.073 18.213 -219.073V10.9268ZM27.5655 16.5455L-186.957 99.4921C-199.966 65.8469 -204.873 29.6053 -201.271 -6.29917L27.5804 16.6557L256.432 39.6105C260.041 3.6313 255.124 -32.6858 242.088 -66.4011L27.5655 16.5455ZM27.5804 16.6557L-201.271 -6.29917C-197.67 -42.1992 -185.666 -76.7449 -166.231 -107.14L27.5439 16.7607L221.319 140.661C240.794 110.203 252.824 75.5853 256.432 39.6105L27.5804 16.6557ZM27.5439 16.7607L-166.231 -107.14C-146.796 -137.536 -120.475 -162.928 -89.4004 -181.26L27.4639 16.8379L144.328 214.936C175.468 196.565 201.843 171.12 221.319 140.661L27.5439 16.7607ZM27.4639 16.8379L-89.4004 -181.26C-58.3232 -199.593 -23.368 -210.348 12.6332 -212.658L27.3577 16.8705L42.0821 246.399C78.1584 244.084 113.186 233.307 144.328 214.936L27.4639 16.8379ZM27.3577 16.8705L8.49477 -212.355C-1.07455 -211.567 -10.6282 -210.206 -20.1148 -208.264L26.0212 17.0615L72.1573 242.387C63.552 244.149 54.8893 245.382 46.2206 246.096L27.3577 16.8705ZM26.0212 17.0615L-18.0891 -208.669C31.574 -218.374 83.0546 -211.411 128.359 -188.858L25.8595 17.0396L-76.6398 222.937C-31.2355 245.54 20.3588 252.518 70.1316 242.792L26.0212 17.0615ZM25.8595 17.0396L128.359 -188.858C173.662 -166.305 210.25 -129.427 232.444 -83.9497L25.7445 16.9237L-180.955 117.797C-158.712 163.374 -122.043 200.335 -76.6398 222.937L25.8595 17.0396ZM25.7445 16.9237L232.559 -83.714C187.211 -176.904 95.9741 -217.261 18.213 -217.261V12.7393V242.739C-52.5326 242.739 -138.05 205.969 -181.07 117.561L25.7445 16.9237ZM18.213 12.7393V-217.261C-74.0739 -217.261 -219.885 -147.267 -219.885 19.3416H10.1147H240.115C240.115 178.952 101.232 242.739 18.213 242.739V12.7393ZM10.1147 19.3416H-219.885C-219.885 105.678 -174.426 171.536 -124.751 208.583L12.7525 24.2124L150.256 -160.159C196.622 -125.579 240.115 -63.2125 240.115 19.3416H10.1147ZM12.7525 24.2124L-125.247 208.213C-153.782 186.812 -176.926 159.043 -192.835 127.119L13.0199 24.5332L218.875 -78.0523C202.84 -110.229 179.513 -138.218 150.752 -159.788L12.7525 24.2124ZM13.0199 24.5332L-192.835 127.119C-208.744 95.1941 -216.979 59.9958 -216.884 24.3271L13.115 24.9398L243.114 25.5525C243.21 -10.3984 234.91 -45.8751 218.875 -78.0523L13.0199 24.5332ZM13.115 24.9398H-216.885V26.0756H13.115H243.115V24.9398H13.115ZM13.115 26.0756L74.6361 247.695L76.5078 247.175L14.9867 25.5561L-46.5344 -196.063L-48.4061 -195.544L13.115 26.0756ZM14.9867 25.5561L76.3922 247.208C35.2763 258.598 -8.20437 258.281 -49.1512 246.291L15.4834 25.5597L80.1179 -195.172C38.8472 -207.257 -4.9775 -207.576 -46.4187 -196.095L14.9867 25.5561ZM15.4834 25.5597L-49.2778 246.254C-29.9718 251.919 -10.3581 255.029 9.05877 255.77L17.8336 25.9379L26.6084 -203.895C44.3795 -203.216 62.4127 -200.367 80.2445 -195.135L15.4834 25.5597ZM17.8336 25.9379L7.13037 255.689C-50.0394 253.025 -104.16 229.12 -144.633 188.646L18.0012 26.0119L180.636 -136.623C140.073 -177.185 85.8328 -201.144 28.5368 -203.813L17.8336 25.9379ZM18.0012 26.0119L-144.633 188.646C-185.105 148.175 -209.012 94.0553 -211.676 36.8828L18.0752 26.1796L247.826 15.4763C245.157 -41.8225 221.196 -96.062 180.636 -136.623L18.0012 26.0119ZM18.0752 26.1796L-211.705 36.2324C-211.09 50.2899 -209.206 64.883 -205.751 79.7488L18.277 27.6755L242.305 -24.3978C245.536 -10.4955 247.286 3.10029 247.855 16.1267L18.0752 26.1796ZM18.277 27.6755L-206.357 77.0664C-213.617 44.0483 -213.505 9.841 -206.037 -23.1197L18.2769 27.705L242.591 78.5296C250.064 45.5495 250.175 11.3221 242.911 -21.7155L18.277 27.6755ZM18.2769 27.705L-206.037 -23.1197C-198.569 -56.0802 -183.926 -86.9948 -163.143 -113.659L18.2643 27.7316L199.672 169.123C220.466 142.442 235.119 111.509 242.591 78.5296L18.2769 27.705ZM18.2643 27.7316L-163.143 -113.659C-142.352 -140.334 -115.945 -162.079 -85.8179 -177.363L18.2416 27.7503L122.301 232.864C152.446 217.571 178.869 195.813 199.672 169.123L18.2643 27.7316ZM18.2416 27.7503L-85.8179 -177.363C-55.6941 -192.646 -22.5514 -201.114 11.2573 -202.137L18.213 27.7576L25.1687 257.652C58.9973 256.629 92.1595 248.156 122.301 232.864L18.2416 27.7503ZM18.213 27.7576L17.9254 -202.242C36.8932 -202.266 55.7829 -199.819 74.1179 -194.962L15.2284 27.371L-43.661 249.704C-23.3784 255.076 -2.48203 257.784 18.5006 257.757L18.213 27.7576ZM15.2284 27.371L-46.3247 -194.24L-49.1003 -193.469L12.4529 28.1419L74.006 249.752L76.7816 248.981L15.2284 27.371ZM12.4529 28.1419L-49.1872 -193.444C-15.1449 -202.914 20.6271 -204.381 55.3317 -197.73L12.0394 28.1588L-31.2529 254.048C3.72626 260.752 39.7813 259.273 74.0929 249.728L12.4529 28.1419ZM12.0394 28.1588L55.3317 -197.73C90.0361 -191.079 122.731 -176.49 150.86 -155.105L11.6615 27.9902L-127.537 211.085C-99.1854 232.64 -66.2318 247.344 -31.2529 254.048L12.0394 28.1588ZM11.6615 27.9902L150.86 -155.105C178.99 -133.719 201.791 -106.116 217.481 -74.4559L11.398 27.6712L-194.685 129.798C-178.871 161.709 -155.889 189.53 -127.537 211.085L11.6615 27.9902ZM11.398 27.6712L217.481 -74.4559C233.171 -42.7952 241.324 -7.93389 241.304 27.4019L11.3037 27.2683L-218.696 27.1346C-218.717 62.75 -210.499 97.8871 -194.685 129.798L11.398 27.6712ZM11.3037 27.2683H241.304V25.3796H11.3037H-218.696V27.2683H11.3037ZM11.3037 25.3796L157.689 -152.022C200.073 -117.048 238.302 -57.4882 238.302 19.3416H8.30225H-221.698C-221.698 100.973 -181.114 164.797 -135.082 202.781L11.3037 25.3796Z" fill="#C163A6" mask="url(#path-2-inside-1_1093_2065)"/>
<path d="M16.2832 16.9783C16.2832 17.3196 16.1476 17.6469 15.9063 17.8882C15.665 18.1296 15.3376 18.2652 14.9963 18.2652C14.655 18.2652 14.3277 18.1296 14.0864 17.8882C13.8451 17.6469 13.7095 17.3196 13.7095 16.9783C13.7095 16.637 13.8451 16.3097 14.0864 16.0683C14.3277 15.827 14.655 15.6914 14.9963 15.6914C15.3376 15.6914 15.665 15.827 15.9063 16.0683C16.1476 16.3097 16.2832 16.637 16.2832 16.9783ZM21.4283 18.2652C21.7696 18.2652 22.0969 18.1296 22.3383 17.8882C22.5796 17.6469 22.7152 17.3196 22.7152 16.9783C22.7152 16.637 22.5796 16.3097 22.3383 16.0683C22.0969 15.827 21.7696 15.6914 21.4283 15.6914C21.087 15.6914 20.7597 15.827 20.5183 16.0683C20.277 16.3097 20.1414 16.637 20.1414 16.9783C20.1414 17.3196 20.277 17.6469 20.5183 17.8882C20.7597 18.1296 21.087 18.2652 21.4283 18.2652ZM25.5765 25.3387C25.7242 25.3387 25.8705 25.3096 26.007 25.2531C26.1435 25.1966 26.2675 25.1137 26.372 25.0092C26.4764 24.9048 26.5593 24.7808 26.6158 24.6443C26.6724 24.5078 26.7015 24.3615 26.7015 24.2138C26.7015 24.0661 26.6724 23.9198 26.6158 23.7833C26.5593 23.6468 26.4764 23.5228 26.372 23.4183C26.2675 23.3139 26.1435 23.231 26.007 23.1745C25.8705 23.1179 25.7242 23.0888 25.5765 23.0888C25.2782 23.0888 24.992 23.2073 24.781 23.4183C24.5701 23.6293 24.4516 23.9154 24.4516 24.2138C24.4516 24.5121 24.5701 24.7983 24.781 25.0092C24.992 25.2202 25.2782 25.3387 25.5765 25.3387ZM32.1692 24.2138C32.1692 24.5123 32.0506 24.7986 31.8395 25.0097C31.6284 25.2208 31.3421 25.3393 31.0436 25.3393C30.7451 25.3393 30.4588 25.2208 30.2477 25.0097C30.0366 24.7986 29.9181 24.5123 29.9181 24.2138C29.9181 23.9153 30.0366 23.629 30.2477 23.4179C30.4588 23.2068 30.7451 23.0882 31.0436 23.0882C31.3421 23.0882 31.6284 23.2068 31.8395 23.4179C32.0506 23.629 32.1692 23.9153 32.1692 24.2138Z" fill="#C163A6"/>
<mask id="path-5-inside-2_1093_2065" fill="white">
<path fill-rule="evenodd" clip-rule="evenodd" d="M28.2831 18.9131C32.766 18.9131 36.6931 21.9726 36.6931 26.0761C36.6931 28.1061 35.7143 29.6346 34.1967 30.9106V32.4138C34.1967 32.5534 34.1645 32.6912 34.1025 32.8163C34.0405 32.9415 33.9504 33.0506 33.8393 33.1351C33.7281 33.2197 33.599 33.2775 33.4619 33.3039C33.3247 33.3303 33.1834 33.3247 33.0488 33.2874L30.7747 32.6555C29.963 32.8685 29.1271 32.9749 28.2879 32.972C23.805 32.972 19.8779 29.9125 19.8779 25.809C19.8779 21.7055 23.799 18.9131 28.2831 18.9131ZM34.8854 25.809C34.8854 23.0009 32.093 20.4573 28.2879 20.4573C24.4829 20.4573 21.6904 23.0009 21.6904 25.809C21.6904 28.6172 24.4841 31.1595 28.2879 31.1595C29.043 31.161 29.7944 31.0552 30.5197 30.8454C30.6821 30.7977 30.8545 30.7965 31.0176 30.8418L32.3842 31.2212V30.472C32.3845 30.3311 32.4176 30.1922 32.4809 30.0664C32.5443 29.9405 32.6361 29.8312 32.7491 29.747C34.0952 28.7417 34.8854 27.3291 34.8854 25.8078"/>
</mask>
<path fill-rule="evenodd" clip-rule="evenodd" d="M28.2831 18.9131C32.766 18.9131 36.6931 21.9726 36.6931 26.0761C36.6931 28.1061 35.7143 29.6346 34.1967 30.9106V32.4138C34.1967 32.5534 34.1645 32.6912 34.1025 32.8163C34.0405 32.9415 33.9504 33.0506 33.8393 33.1351C33.7281 33.2197 33.599 33.2775 33.4619 33.3039C33.3247 33.3303 33.1834 33.3247 33.0488 33.2874L30.7747 32.6555C29.963 32.8685 29.1271 32.9749 28.2879 32.972C23.805 32.972 19.8779 29.9125 19.8779 25.809C19.8779 21.7055 23.799 18.9131 28.2831 18.9131ZM34.8854 25.809C34.8854 23.0009 32.093 20.4573 28.2879 20.4573C24.4829 20.4573 21.6904 23.0009 21.6904 25.809C21.6904 28.6172 24.4841 31.1595 28.2879 31.1595C29.043 31.161 29.7944 31.0552 30.5197 30.8454C30.6821 30.7977 30.8545 30.7965 31.0176 30.8418L32.3842 31.2212V30.472C32.3845 30.3311 32.4176 30.1922 32.4809 30.0664C32.5443 29.9405 32.6361 29.8312 32.7491 29.747C34.0952 28.7417 34.8854 27.3291 34.8854 25.8078" fill="#C163A6"/>
<path d="M34.1967 30.9106L-113.816 -145.135L-195.803 -76.2035V30.9106H34.1967ZM34.1967 32.4138H-195.803V32.4381V32.4624L34.1967 32.4138ZM33.0488 33.2874L-28.5335 254.89L-28.4091 254.924L-28.2846 254.959L33.0488 33.2874ZM30.7747 32.6555L92.3569 -188.947L32.49 -205.584L-27.6103 -189.811L30.7747 32.6555ZM28.2879 32.972L29.0705 -197.027L28.6792 -197.028H28.2879V32.972ZM28.2879 31.1595L28.7315 -198.84L28.5097 -198.84H28.2879V31.1595ZM30.5197 30.8454L94.4413 251.784L94.8726 251.66L95.3034 251.533L30.5197 30.8454ZM31.0176 30.8418L-30.5455 252.449L-30.5277 252.454L-30.51 252.459L31.0176 30.8418ZM32.3842 31.2212L-29.1434 252.839L262.384 333.775V31.2212H32.3842ZM32.3842 30.472L-197.615 30.0133L-197.616 30.2426V30.472H32.3842ZM32.7491 29.747L170.135 214.206L170.257 214.115L170.378 214.025L32.7491 29.747ZM28.2831 18.9131V248.913C-20.4207 248.913 -70.8723 232.615 -112.578 198.058C-155.692 162.334 -193.307 102.351 -193.307 26.0761H36.6931H266.693C266.693 -143.634 117.425 -211.087 28.2831 -211.087V18.9131ZM36.6931 26.0761H-193.307C-193.307 -12.0447 -183.58 -48.9921 -165.843 -81.4673C-149.078 -112.164 -128.559 -132.741 -113.816 -145.135L34.1967 30.9106L182.21 206.956C217.996 176.868 266.693 116.173 266.693 26.0761H36.6931ZM34.1967 30.9106H-195.803V32.4138H34.1967H264.197V30.9106H34.1967ZM34.1967 32.4138L-195.803 32.4624C-195.811 -2.83861 -187.66 -37.6644 -171.987 -69.2966L34.1025 32.8163L240.192 134.929C255.989 103.047 264.204 67.9455 264.197 32.3652L34.1967 32.4138ZM34.1025 32.8163L-171.987 -69.2966C-156.314 -100.929 -133.543 -128.511 -105.452 -149.889L33.8393 33.1351L173.131 216.16C201.444 194.612 224.395 166.812 240.192 134.929L34.1025 32.8163ZM33.8393 33.1351L-105.452 -149.889C-77.3621 -171.267 -44.7102 -185.866 -10.044 -192.544L33.4619 33.3039L76.9677 259.152C111.908 252.421 144.818 237.707 173.131 216.16L33.8393 33.1351ZM33.4619 33.3039L-10.044 -192.544C24.6231 -199.222 60.3616 -197.797 94.3821 -188.384L33.0488 33.2874L-28.2846 254.959C6.0051 264.446 42.0263 265.883 76.9677 259.152L33.4619 33.3039ZM33.0488 33.2874L94.631 -188.315L92.3569 -188.947L30.7747 32.6555L-30.8076 254.258L-28.5335 254.89L33.0488 33.2874ZM30.7747 32.6555L-27.6103 -189.811C-9.10992 -194.666 9.94384 -197.092 29.0705 -197.027L28.2879 32.972L27.5054 262.971C48.3103 263.042 69.036 260.403 89.1596 255.122L30.7747 32.6555ZM28.2879 32.972V-197.028C76.9918 -197.028 127.443 -180.73 169.149 -146.173C212.263 -110.449 249.878 -50.4659 249.878 25.809H19.8779H-210.122C-210.122 195.519 -60.8537 262.972 28.2879 262.972V32.972ZM19.8779 25.809H249.878C249.878 103.773 210.586 165.45 164.53 201.65C121.196 235.711 71.7742 248.913 28.2831 248.913V18.9131V-211.087C-48.5505 -211.087 -210.122 -153.836 -210.122 25.809H19.8779ZM34.8854 25.809H264.885C264.885 -139.775 120.143 -209.543 28.2879 -209.543V20.4573V250.457C-55.9568 250.457 -195.115 185.777 -195.115 25.809H34.8854ZM28.2879 20.4573V-209.543C-63.5668 -209.543 -208.31 -139.776 -208.31 25.809H21.6904H251.69C251.69 185.777 112.533 250.457 28.2879 250.457V20.4573ZM21.6904 25.809H-208.31C-208.31 191.478 -63.465 261.16 28.2879 261.16V31.1595V-198.84C112.433 -198.84 251.69 -134.244 251.69 25.809H21.6904ZM28.2879 31.1595L27.8444 261.159C50.3754 261.203 72.7982 258.046 94.4413 251.784L30.5197 30.8454L-33.4019 -190.094C-13.2094 -195.936 7.7106 -198.881 28.7315 -198.84L28.2879 31.1595ZM30.5197 30.8454L95.3034 251.533C54.26 263.582 10.6653 263.898 -30.5455 252.449L31.0176 30.8418L92.5806 -190.766C51.0438 -202.305 7.10411 -201.986 -34.2639 -189.842L30.5197 30.8454ZM31.0176 30.8418L-30.51 252.459L-29.1434 252.839L32.3842 31.2212L93.9117 -190.396L92.5451 -190.776L31.0176 30.8418ZM32.3842 31.2212H262.384V30.472H32.3842H-197.616V31.2212H32.3842ZM32.3842 30.472L262.384 30.9307C262.313 66.5495 253.937 101.66 237.925 133.473L32.4809 30.0664L-172.963 -73.3402C-189.102 -41.2751 -197.544 -5.88725 -197.615 30.0133L32.3842 30.472ZM32.4809 30.0664L237.925 133.473C221.911 165.288 198.7 192.93 170.135 214.206L32.7491 29.747L-104.637 -154.712C-133.428 -133.268 -156.823 -105.407 -172.963 -73.3402L32.4809 30.0664ZM32.7491 29.747L170.378 214.025C219.679 177.204 264.885 111.715 264.885 25.8078H34.8854H-195.115C-195.115 -57.0571 -151.488 -119.721 -104.88 -154.531L32.7491 29.747Z" fill="#C163A6" mask="url(#path-5-inside-2_1093_2065)"/>
</svg>
