<svg width="64" height="64" viewBox="0 0 64 64" fill="none" xmlns="http://www.w3.org/2000/svg">
<rect width="64" height="64" rx="16" fill="url(#paint0_linear_683_243)"/>
<path d="M32 22C33.36 22 34.66 22.26 35.9 22.78C37.0867 23.2867 38.1433 24.0033 39.07 24.93C39.9967 25.8567 40.7133 26.9133 41.22 28.1C41.74 29.34 42 30.64 42 32C42 33.36 41.74 34.66 41.22 35.9C40.7133 37.0867 39.9967 38.1433 39.07 39.07C38.1433 39.9967 37.0867 40.7133 35.9 41.22C34.66 41.74 33.36 42 32 42C30.64 42 29.34 41.74 28.1 41.22C26.9133 40.7133 25.8567 39.9967 24.93 39.07C24.0033 38.1433 23.2867 37.0867 22.78 35.9C22.26 34.66 22 33.36 22 32C22 30.64 22.26 29.34 22.78 28.1C23.2867 26.9133 24.0033 25.8567 24.93 24.93C25.8567 24.0033 26.9133 23.2867 28.1 22.78C29.34 22.26 30.64 22 32 22ZM32 24C30.5467 24 29.2 24.3667 27.96 25.1C26.76 25.8067 25.8067 26.76 25.1 27.96C24.3667 29.2 24 30.5467 24 32C24 33.4533 24.3667 34.8 25.1 36.04C25.8067 37.24 26.76 38.1933 27.96 38.9C29.2 39.6333 30.5467 40 32 40C33.4533 40 34.8 39.6333 36.04 38.9C37.24 38.1933 38.1933 37.24 38.9 36.04C39.6333 34.8 40 33.4533 40 32C40 30.5467 39.6333 29.2 38.9 27.96C38.1933 26.76 37.24 25.8067 36.04 25.1C34.8 24.3667 33.4533 24 32 24ZM35.84 27.34C35.96 27.26 36.09 27.2267 36.23 27.24C36.37 27.2533 36.49 27.31 36.59 27.41C36.69 27.51 36.7467 27.63 36.76 27.77C36.7733 27.91 36.74 28.04 36.66 28.16C34.4733 31.2133 33.2733 32.8467 33.06 33.06C32.7667 33.3533 32.4133 33.5 32 33.5C31.5867 33.5 31.2333 33.3533 30.94 33.06C30.6467 32.7667 30.5 32.4133 30.5 32C30.5 31.5867 30.6467 31.2333 30.94 30.94C31.3133 30.5667 32.9467 29.3667 35.84 27.34ZM37.5 31C37.78 31 38.0167 31.0967 38.21 31.29C38.4033 31.4833 38.5 31.72 38.5 32C38.5 32.28 38.4033 32.5167 38.21 32.71C38.0167 32.9033 37.78 33 37.5 33C37.22 33 36.9833 32.9033 36.79 32.71C36.5967 32.5167 36.5 32.28 36.5 32C36.5 31.72 36.5967 31.4833 36.79 31.29C36.9833 31.0967 37.22 31 37.5 31ZM26.5 31C26.78 31 27.0167 31.0967 27.21 31.29C27.4033 31.4833 27.5 31.72 27.5 32C27.5 32.28 27.4033 32.5167 27.21 32.71C27.0167 32.9033 26.78 33 26.5 33C26.22 33 25.9833 32.9033 25.79 32.71C25.5967 32.5167 25.5 32.28 25.5 32C25.5 31.72 25.5967 31.4833 25.79 31.29C25.9833 31.0967 26.22 31 26.5 31ZM28.82 27.4C29.02 27.6 29.12 27.8367 29.12 28.11C29.12 28.3833 29.02 28.62 28.82 28.82C28.62 29.02 28.3833 29.12 28.11 29.12C27.8367 29.12 27.6033 29.02 27.41 28.82C27.2167 28.62 27.12 28.3833 27.12 28.11C27.12 27.8367 27.2167 27.6033 27.41 27.41C27.6033 27.2167 27.8367 27.12 28.11 27.12C28.3833 27.12 28.62 27.2133 28.82 27.4ZM32 25.5C32.28 25.5 32.5167 25.5967 32.71 25.79C32.9033 25.9833 33 26.22 33 26.5C33 26.78 32.9033 27.0167 32.71 27.21C32.5167 27.4033 32.28 27.5 32 27.5C31.72 27.5 31.4833 27.4033 31.29 27.21C31.0967 27.0167 31 26.78 31 26.5C31 26.22 31.0967 25.9833 31.29 25.79C31.4833 25.5967 31.72 25.5 32 25.5Z" fill="#2563EB"/>
<defs>
<linearGradient id="paint0_linear_683_243" x1="0" y1="32" x2="64" y2="32" gradientUnits="userSpaceOnUse">
<stop stop-color="#DBEAFE"/>
<stop offset="1" stop-color="#BFDBFE"/>
</linearGradient>
</defs>
</svg>
